External Loads File
version=1
nRows=55
nColumns=13
Range=5.000000e-03-10 seconds
endheader
time 	forceRightX 	forceRightY 	forceRightZ 	pointRightX 	pointRightY 	pointRightZ 	forceLeftX 	forceLeftY 	forceLeftZ 	pointLeftX 	pointLeftY 	pointLeftZ 		
0.005000 106.510661 128.207119 -0.000000 0.134421 0.198767 -0.147745 29.698481 87.865299 -0.000000 0.345649 0.460705 -0.381474
0.010000 106.282380 128.524986 -0.000000 0.134611 0.198653 -0.147741 29.859680 87.840487 -0.000000 0.345476 0.460868 -0.381460
0.015000 106.281246 128.652744 -0.000000 0.134784 0.198523 -0.147733 30.145935 87.780669 -0.000000 0.345324 0.461008 -0.381462
0.020000 106.459296 128.672092 -0.000000 0.134896 0.198374 -0.147756 30.525349 87.732780 -0.000000 0.345183 0.461177 -0.381462
0.025000 106.443810 128.902076 -0.000000 0.135027 0.198280 -0.147756 30.734742 87.813287 -0.000000 0.345027 0.461263 -0.381453
0.030000 106.709972 128.917280 -0.000000 0.135138 0.198245 -0.147766 31.093876 87.927022 -0.000000 0.344974 0.461479 -0.381428
0.035000 106.717051 129.106600 -0.000000 0.135214 0.198161 -0.147760 31.222015 88.198218 -0.000000 0.344890 0.461535 -0.381433
0.040000 107.020445 128.969884 -0.000000 0.135285 0.198110 -0.147757 31.496856 88.477378 -0.000000 0.344829 0.461580 -0.381432
0.045000 107.123964 128.926672 -0.000000 0.135346 0.198087 -0.147756 31.600671 88.882288 -0.000000 0.344797 0.461603 -0.381424
0.050000 107.455129 128.674056 -0.000000 0.135370 0.198104 -0.147754 31.848432 89.315819 -0.000000 0.344784 0.461594 -0.381423
0.055000 108.099015 128.196975 -0.000000 0.135385 0.198128 -0.147756 32.303859 89.760127 -0.000000 0.344782 0.461567 -0.381425
0.060000 108.083079 128.336561 -0.000000 0.135384 0.198168 -0.147760 32.269590 90.453626 -0.000000 0.344804 0.461513 -0.381435
0.065000 108.663275 128.011048 -0.000000 0.135355 0.198275 -0.147754 32.613666 91.061611 -0.000000 0.344838 0.461437 -0.381438
0.070000 109.299792 127.624037 -0.000000 0.135306 0.198360 -0.147770 32.969145 91.691566 -0.000000 0.344890 0.461359 -0.381424
0.075000 109.637123 127.420475 -0.000000 0.135246 0.198452 -0.147779 33.091257 92.396146 -0.000000 0.344955 0.461238 -0.381434
0.080000 109.952748 127.104810 -0.000000 0.135177 0.198569 -0.147767 33.171134 93.051028 -0.000000 0.345020 0.461128 -0.381440
0.085000 110.155899 126.726518 -0.000000 0.135109 0.198662 -0.147777 33.139391 93.634676 -0.000000 0.345087 0.461022 -0.381440
0.090000 110.149320 126.384695 -0.000000 0.135047 0.198786 -0.147770 32.918983 94.148283 -0.000000 0.345151 0.460926 -0.381442
0.095000 109.964987 126.086693 -0.000000 0.134977 0.198883 -0.147754 32.503865 94.573236 -0.000000 0.345217 0.460806 -0.381442
0.100000 109.644625 125.824411 -0.000000 0.134898 0.198980 -0.147759 31.898908 94.899742 -0.000000 0.345289 0.460694 -0.381449
0.105000 109.414250 125.410153 -0.000000 0.134815 0.199076 -0.147758 31.283251 95.076813 -0.000000 0.345365 0.460550 -0.381449
0.110000 109.097239 124.993298 -0.000000 0.134739 0.199229 -0.147775 30.569046 95.162086 -0.000000 0.345441 0.460327 -0.381444
0.115000 108.844313 124.446312 -0.000000 0.134650 0.199347 -0.147772 29.947811 95.158320 -0.000000 0.345508 0.460171 -0.381454
0.120000 108.474959 123.959125 -0.000000 0.134571 0.199483 -0.147776 29.348955 95.169725 -0.000000 0.345579 0.460033 -0.381457
0.125000 108.055711 123.529013 -0.000000 0.134501 0.199614 -0.147775 28.842705 95.234482 -0.000000 0.345637 0.459872 -0.381471
0.130000 107.700144 123.111264 -0.000000 0.134420 0.199735 -0.147785 28.511169 95.368490 -0.000000 0.345699 0.459738 -0.381467
0.135000 108.962948 121.360435 -0.000000 0.134378 0.199875 -0.147772 29.553820 95.219706 -0.000000 0.345741 0.459607 -0.381477
0.140000 108.702906 121.068920 -0.000000 0.134329 0.200020 -0.147774 29.501515 95.509495 -0.000000 0.345783 0.459495 -0.381489
0.145000 108.368971 120.951676 -0.000000 0.134292 0.200128 -0.147775 29.480483 95.851314 -0.000000 0.345797 0.459411 -0.381486
0.150000 108.096035 120.887896 -0.000000 0.134262 0.200200 -0.147782 29.594679 96.169694 -0.000000 0.345811 0.459321 -0.381473
0.155000 107.978139 120.791542 -0.000000 0.134235 0.200279 -0.147787 29.880596 96.402670 -0.000000 0.345829 0.459243 -0.381476
0.160000 107.644762 120.973013 -0.000000 0.134202 0.200351 -0.147791 29.995817 96.616227 -0.000000 0.345859 0.459154 -0.381478
0.165000 107.326347 121.191669 -0.000000 0.134180 0.200435 -0.147793 30.078615 96.743728 -0.000000 0.345874 0.459084 -0.381484
0.170000 107.308213 121.169799 -0.000000 0.134141 0.200532 -0.147796 30.311336 96.718557 -0.000000 0.345891 0.459019 -0.381483
0.175000 107.045466 121.385809 -0.000000 0.134118 0.200616 -0.147807 30.246890 96.698466 -0.000000 0.345927 0.458954 -0.381478
0.180000 106.961609 121.477399 -0.000000 0.134093 0.200674 -0.147792 30.247146 96.604456 -0.000000 0.345964 0.458874 -0.381483
0.185000 106.720797 121.753261 -0.000000 0.134074 0.200729 -0.147794 30.080210 96.540301 -0.000000 0.345991 0.458820 -0.381476
0.190000 106.632800 121.940200 -0.000000 0.134045 0.200772 -0.147810 30.024280 96.445720 -0.000000 0.346017 0.458697 -0.381468
0.195000 106.487512 122.194878 -0.000000 0.134006 0.200820 -0.147803 29.923388 96.376024 -0.000000 0.346072 0.458617 -0.381475
0.200000 106.583021 122.206758 -0.000000 0.133962 0.200897 -0.147810 30.007791 96.246876 -0.000000 0.346110 0.458563 -0.381482
0.205000 106.247970 122.518517 -0.000000 0.133899 0.200971 -0.147801 29.752837 96.219411 -0.000000 0.346182 0.458458 -0.381471
0.210000 106.060454 122.616248 -0.000000 0.133816 0.201037 -0.147816 29.617491 96.163412 -0.000000 0.346248 0.458385 -0.381475
0.215000 105.728539 122.771565 -0.000000 0.133726 0.201138 -0.147807 29.374078 96.168265 -0.000000 0.346349 0.458295 -0.381476
0.220000 105.485199 122.822961 -0.000000 0.133633 0.201228 -0.147806 29.222379 96.201733 -0.000000 0.346435 0.458219 -0.381488
0.225000 105.559466 122.622967 -0.000000 0.133529 0.201341 -0.147825 29.355309 96.226058 -0.000000 0.346533 0.458107 -0.381474
0.230000 105.505438 122.597597 -0.000000 0.133434 0.201433 -0.147815 29.422366 96.351856 -0.000000 0.346641 0.458012 -0.381480
0.235000 105.569473 122.572934 -0.000000 0.133325 0.201538 -0.147825 29.623853 96.532408 -0.000000 0.346741 0.457916 -0.381489
0.240000 105.893365 122.455938 -0.000000 0.133207 0.201627 -0.147823 30.087982 96.757796 -0.000000 0.346837 0.457821 -0.381487
0.245000 106.074943 122.580396 -0.000000 0.133089 0.201742 -0.147825 30.541209 97.148018 -0.000000 0.346933 0.457729 -0.381489
0.250000 106.481503 122.565492 -0.000000 0.132981 0.201851 -0.147819 31.370218 97.625194 -0.000000 0.347023 0.457642 -0.381484
0.255000 106.774385 122.636979 -0.000000 0.132863 0.201946 -0.147815 32.384790 98.268985 -0.000000 0.347105 0.457540 -0.381486
0.260000 107.096524 122.624590 -0.000000 0.132761 0.202062 -0.147804 33.680879 99.002037 -0.000000 0.347175 0.457436 -0.381491
0.265000 107.269179 122.649765 -0.000000 0.132687 0.202170 -0.147809 35.025044 99.806291 -0.000000 0.347231 0.457332 -0.381491
0.270000 107.407851 122.582809 -0.000000 0.132597 0.202262 -0.147806 36.393652 100.578702 -0.000000 0.347289 0.457228 -0.381494
0.275000 109.597404 120.538041 -0.000000 0.132525 0.202351 -0.147814 39.388960 100.586881 -0.000000 0.347334 0.457075 -0.381509
